# Blender 3.6.4
# www.blender.org
mtllib Road1.mtl
o Road_42_LOD0
v -9.000000 0.010001 0.000000
v -6.000000 0.010001 0.000000
v -9.000000 0.010000 -3.000000
v -8.925000 0.010001 0.000000
v -8.925000 0.010000 -3.000000
v -6.000000 0.010000 -2.625000
v -8.925000 0.010000 -2.625000
v -9.000000 0.010000 -2.625000
v -9.000000 0.010000 -1.875000
v -6.000000 0.010000 -1.875000
v -8.925000 0.010000 -1.875000
v -9.000000 0.010001 -1.125000
v -6.000000 0.010001 -1.125000
v -8.925000 0.010001 -1.125000
v -9.000000 0.010001 -0.375000
v -6.000000 0.010001 -0.375000
v -8.925000 0.010001 -0.375000
v -12.000000 0.010000 -3.000000
v -12.000000 0.010001 0.000000
v -12.075000 0.010000 -3.000000
v -12.075000 0.010001 0.000000
v -12.075000 0.010001 -0.375000
v -12.000000 0.010001 -0.375000
v -12.000000 0.010001 -1.125000
v -12.075000 0.010001 -1.125000
v -12.000000 0.010000 -1.875000
v -12.075000 0.010000 -1.875000
v -12.000000 0.010000 -2.625000
v -12.075000 0.010000 -2.625000
v -15.000000 0.010000 -3.000000
v -15.000000 0.010001 -0.000001
v -14.925000 0.010000 -3.000000
v -14.925000 0.010001 -0.000001
v -14.925000 0.010001 -0.375001
v -15.000000 0.010001 -0.375001
v -15.000000 0.010001 -1.125000
v -14.925000 0.010001 -1.125000
v -15.000000 0.010000 -1.875000
v -14.925000 0.010000 -1.875000
v -15.000000 0.010000 -2.625000
v -14.925000 0.010000 -2.625000
v -13.500000 0.010000 -3.000000
v -13.500000 0.010001 -0.000000
v -13.500000 0.010001 -0.375000
v -13.500000 0.010001 -1.125000
v -13.500000 0.010000 -1.875000
v -13.500000 0.010000 -2.625000
v -9.000000 0.010000 -3.000000
v -9.000000 0.010001 0.000000
v -9.075000 0.010000 -3.000000
v -9.075000 0.010001 0.000000
v -9.075000 0.010001 -0.375000
v -9.000000 0.010001 -0.375000
v -9.000000 0.010001 -1.125000
v -9.075000 0.010001 -1.125000
v -9.000000 0.010000 -1.875000
v -9.075000 0.010000 -1.875000
v -9.000000 0.010000 -2.625000
v -9.075000 0.010000 -2.625000
v -12.000000 0.010000 -3.000000
v -12.000000 0.010001 0.000000
v -11.925000 0.010000 -3.000000
v -11.925000 0.010001 0.000000
v -11.925000 0.010001 -0.375000
v -12.000000 0.010001 -0.375000
v -12.000000 0.010001 -1.125000
v -11.925000 0.010001 -1.125000
v -12.000000 0.010000 -1.875000
v -11.925000 0.010000 -1.875000
v -12.000000 0.010000 -2.625000
v -11.925000 0.010000 -2.625000
v -10.500000 0.010000 -3.000000
v -10.500000 0.010001 -0.000000
v -10.500000 0.010001 -0.375000
v -10.500000 0.010001 -1.125000
v -10.500000 0.010000 -1.875000
v -10.500000 0.010000 -2.625000
v -15.000000 0.010000 -3.000000
v -18.000000 0.010000 -3.000001
v -15.000000 0.010001 -0.000001
v -18.000000 0.010001 -0.000000
v -15.075000 0.010000 -3.000000
v -15.075000 0.010001 -0.000001
v -18.000000 0.010001 -0.375000
v -15.075000 0.010001 -0.375001
v -15.000000 0.010001 -0.375001
v -15.000000 0.010001 -1.125000
v -18.000000 0.010001 -1.125001
v -15.075000 0.010001 -1.125000
v -15.000000 0.010000 -1.875000
v -18.000000 0.010000 -1.875001
v -15.075000 0.010000 -1.875000
v -15.000000 0.010000 -2.625000
v -18.000000 0.010000 -2.625001
v -15.075000 0.010000 -2.625000
v -6.000000 0.010000 -3.000000
v -17.924999 -0.000000 -3.000000
v -17.924999 0.000001 -0.000000
v -18.075001 -0.000000 -3.000000
v -18.075001 0.000001 -0.000000
v -17.938307 0.150000 -3.000000
v -17.924999 0.136692 -3.000000
v -17.924999 0.136693 -0.000000
v -17.938309 0.150001 -0.000000
v -18.075001 0.136692 -3.000000
v -18.061691 0.150000 -3.000000
v -18.061693 0.150001 -0.000000
v -18.075001 0.136693 -0.000000
vn -0.0000 1.0000 -0.0000
vn -1.0000 -0.0000 -0.0000
vn 1.0000 -0.0000 -0.0000
vn -0.0000 -1.0000 -0.0000
vn -0.0000 -0.0000 1.0000
vn 0.7071 0.7071 -0.0000
vn -0.7071 0.7071 -0.0000
vn -0.0000 -0.0000 -1.0000
vt 0.394999 0.038741
vt 0.395840 0.038741
vt 0.394999 0.041897
vt 0.395840 0.041897
vt 0.895712 0.019806
vt 0.896554 0.019806
vt 0.895712 0.022962
vt 0.896554 0.022962
vt 0.895712 0.032429
vt 0.896554 0.032429
vt 0.895712 0.035585
vt 0.896554 0.035585
vt 0.394999 0.029273
vt 0.395840 0.029273
vt 0.394999 0.032429
vt 0.395840 0.032429
vt 0.394999 0.016650
vt 0.395840 0.016650
vt 0.394999 0.019806
vt 0.395840 0.019806
vt 0.408043 0.016650
vt 0.408043 0.019806
vt 0.408043 0.029273
vt 0.408043 0.032429
vt 0.395840 0.035585
vt 0.408043 0.037163
vt 0.395840 0.022962
vt 0.408043 0.022962
vt 0.408043 0.041897
vt 0.418485 0.016650
vt 0.418485 0.019806
vt 0.418485 0.029273
vt 0.418485 0.032429
vt 0.418485 0.037163
vt 0.418485 0.022962
vt 0.418485 0.041897
vt 0.408043 0.022962
vt 0.589207 0.033391
vt 0.594721 0.033391
vt 0.589207 0.040094
vt 0.594721 0.040094
vt 0.581909 0.033391
vt 0.588018 0.033391
vt 0.581909 0.040094
vt 0.588018 0.040094
vt 0.581909 0.019984
vt 0.588018 0.019984
vt 0.581909 0.026687
vt 0.588018 0.026687
vt 0.575205 0.033391
vt 0.575205 0.040094
vt 0.588613 0.027282
vt 0.588613 0.032796
vt 0.595316 0.040094
vt 0.595316 0.033391
vt 0.581909 0.046798
vt 0.588613 0.040689
vt 0.588018 0.046798
vt 0.588613 0.046203
s 1
usemtl City_01.001
f 8/1/1 7/2/1 3/3/1
f 3/3/1 7/2/1 5/4/1
f 15/5/1 17/6/1 12/7/1
f 12/7/1 17/6/1 14/8/1
f 9/9/1 11/10/1 8/11/1
f 8/11/1 11/10/1 7/12/1
f 12/13/1 14/14/1 9/15/1
f 9/15/1 14/14/1 11/16/1
f 1/17/1 4/18/1 15/19/1
f 15/19/1 4/18/1 17/20/1
f 23/1/1 22/2/1 19/3/1
f 19/3/1 22/2/1 21/4/1
f 28/5/1 29/6/1 26/7/1
f 26/7/1 29/6/1 27/8/1
f 24/9/1 25/10/1 23/11/1
f 23/11/1 25/10/1 22/12/1
f 26/13/1 27/14/1 24/15/1
f 24/15/1 27/14/1 25/16/1
f 18/17/1 20/18/1 28/19/1
f 28/19/1 20/18/1 29/20/1
f 20/18/1 42/21/1 29/20/1
f 29/20/1 42/21/1 47/22/1
f 27/14/1 46/23/1 25/16/1
f 25/16/1 46/23/1 45/24/1
f 25/16/1 45/24/1 22/25/1
f 22/25/1 45/24/1 44/26/1
f 29/20/1 47/22/1 27/27/1
f 27/27/1 47/22/1 46/28/1
f 22/2/1 44/26/1 21/4/1
f 21/4/1 44/26/1 43/29/1
f 35/1/1 31/3/1 34/2/1
f 34/2/1 31/3/1 33/4/1
f 40/5/1 38/7/1 41/6/1
f 41/6/1 38/7/1 39/8/1
f 36/9/1 35/11/1 37/10/1
f 37/10/1 35/11/1 34/12/1
f 38/13/1 36/15/1 39/14/1
f 39/14/1 36/15/1 37/16/1
f 30/17/1 40/19/1 32/18/1
f 32/18/1 40/19/1 41/20/1
f 32/18/1 41/20/1 42/21/1
f 42/21/1 41/20/1 47/22/1
f 39/14/1 37/16/1 46/23/1
f 46/23/1 37/16/1 45/24/1
f 37/16/1 34/25/1 45/24/1
f 45/24/1 34/25/1 44/26/1
f 41/20/1 39/27/1 47/22/1
f 47/22/1 39/27/1 46/28/1
f 34/2/1 33/4/1 44/26/1
f 44/26/1 33/4/1 43/29/1
f 53/1/1 52/2/1 49/3/1
f 49/3/1 52/2/1 51/4/1
f 58/5/1 59/6/1 56/7/1
f 56/7/1 59/6/1 57/8/1
f 54/9/1 55/10/1 53/11/1
f 53/11/1 55/10/1 52/12/1
f 56/13/1 57/14/1 54/15/1
f 54/15/1 57/14/1 55/16/1
f 48/17/1 50/18/1 58/19/1
f 58/19/1 50/18/1 59/20/1
f 50/18/1 72/21/1 59/20/1
f 59/20/1 72/21/1 77/22/1
f 57/14/1 76/23/1 55/16/1
f 55/16/1 76/23/1 75/24/1
f 55/16/1 75/24/1 52/25/1
f 52/25/1 75/24/1 74/26/1
f 59/20/1 77/22/1 57/27/1
f 57/27/1 77/22/1 76/28/1
f 52/2/1 74/26/1 51/4/1
f 51/4/1 74/26/1 73/29/1
f 65/1/1 61/3/1 64/2/1
f 64/2/1 61/3/1 63/4/1
f 70/5/1 68/7/1 71/6/1
f 71/6/1 68/7/1 69/8/1
f 66/9/1 65/11/1 67/10/1
f 67/10/1 65/11/1 64/12/1
f 68/13/1 66/15/1 69/14/1
f 69/14/1 66/15/1 67/16/1
f 60/17/1 70/19/1 62/18/1
f 62/18/1 70/19/1 71/20/1
f 62/18/1 71/20/1 72/21/1
f 72/21/1 71/20/1 77/22/1
f 69/14/1 67/16/1 76/23/1
f 76/23/1 67/16/1 75/24/1
f 67/16/1 64/25/1 75/24/1
f 75/24/1 64/25/1 74/26/1
f 71/20/1 69/27/1 77/22/1
f 77/22/1 69/27/1 76/28/1
f 64/2/1 63/4/1 74/26/1
f 74/26/1 63/4/1 73/29/1
f 86/1/1 85/2/1 80/3/1
f 80/3/1 85/2/1 83/4/1
f 93/5/1 95/6/1 90/7/1
f 90/7/1 95/6/1 92/8/1
f 87/9/1 89/10/1 86/11/1
f 86/11/1 89/10/1 85/12/1
f 90/13/1 92/14/1 87/15/1
f 87/15/1 92/14/1 89/16/1
f 78/17/1 82/18/1 93/19/1
f 93/19/1 82/18/1 95/20/1
f 4/18/1 2/30/1 17/20/1
f 17/20/1 2/30/1 16/31/1
f 14/14/1 13/32/1 11/16/1
f 11/16/1 13/32/1 10/33/1
f 11/16/1 10/33/1 7/25/1
f 7/25/1 10/33/1 6/34/1
f 17/20/1 16/31/1 14/27/1
f 14/27/1 16/31/1 13/35/1
f 7/2/1 6/34/1 5/4/1
f 5/4/1 6/34/1 96/36/1
f 82/18/1 79/21/1 95/20/1
f 95/20/1 79/21/1 94/22/1
f 92/14/1 91/23/1 89/16/1
f 89/16/1 91/23/1 88/24/1
f 89/16/1 88/24/1 85/25/1
f 85/25/1 88/24/1 84/26/1
f 95/20/1 94/22/1 92/27/1
f 92/27/1 94/22/1 91/37/1
f 85/2/1 84/26/1 83/4/1
f 83/4/1 84/26/1 81/29/1
usemtl City_04.072
f 107/38/1 104/39/1 106/40/1
f 106/40/1 104/39/1 101/41/1
f 100/42/2 108/43/2 99/44/2
f 99/44/2 108/43/2 105/45/2
f 97/46/3 102/47/3 98/48/3
f 98/48/3 102/47/3 103/49/3
f 98/50/4 100/42/4 97/51/4
f 97/51/4 100/42/4 99/44/4
f 98/48/5 103/49/5 100/42/5
f 103/49/5 104/52/5 100/42/5
f 100/42/5 104/52/5 108/43/5
f 104/52/5 107/53/5 108/43/5
f 101/41/6 104/39/6 102/54/6
f 102/54/6 104/39/6 103/55/6
f 107/38/7 106/40/7 108/43/7
f 108/43/7 106/40/7 105/45/7
f 99/44/8 105/45/8 97/56/8
f 105/45/8 106/57/8 97/56/8
f 97/56/8 106/57/8 102/58/8
f 106/57/8 101/59/8 102/58/8
o Road_42_LOD0.001
v -3.000000 0.010001 -3.000000
v -6.000000 0.010001 -3.000000
v -3.000000 0.010000 -0.000000
v -3.075000 0.010001 -3.000000
v -3.075000 0.010000 -0.000000
v -6.000000 0.010000 -0.375000
v -3.075000 0.010000 -0.375000
v -3.000000 0.010000 -0.375000
v -3.000000 0.010000 -1.125000
v -6.000000 0.010000 -1.125000
v -3.075000 0.010000 -1.125000
v -3.000000 0.010001 -1.875000
v -6.000000 0.010001 -1.875000
v -3.075000 0.010001 -1.875000
v -3.000000 0.010001 -2.625000
v -6.000000 0.010001 -2.625000
v -3.075000 0.010001 -2.625000
v 0.000000 0.010000 0.000000
v -0.000000 0.010001 -3.000000
v 0.075000 0.010000 0.000000
v 0.075000 0.010001 -3.000000
v 0.075000 0.010001 -2.625000
v -0.000000 0.010001 -2.625000
v -0.000000 0.010001 -1.875000
v 0.075000 0.010001 -1.875000
v -0.000000 0.010000 -1.125000
v 0.075000 0.010000 -1.125000
v -0.000000 0.010000 -0.375000
v 0.075000 0.010000 -0.375000
v 3.000000 0.010000 0.000000
v 3.000000 0.010001 -3.000000
v 2.925000 0.010000 0.000000
v 2.925000 0.010001 -3.000000
v 2.925000 0.010001 -2.625000
v 3.000000 0.010001 -2.625000
v 3.000000 0.010001 -1.875000
v 2.925000 0.010001 -1.875000
v 3.000000 0.010000 -1.125000
v 2.925000 0.010000 -1.125000
v 3.000000 0.010000 -0.375000
v 2.925000 0.010000 -0.375000
v 1.500000 0.010000 0.000000
v 1.500000 0.010001 -3.000000
v 1.500000 0.010001 -2.625000
v 1.500000 0.010001 -1.875000
v 1.500000 0.010000 -1.125000
v 1.500000 0.010000 -0.375000
v -3.000000 0.010000 0.000000
v -3.000000 0.010001 -3.000000
v -2.925000 0.010000 0.000000
v -2.925000 0.010001 -3.000000
v -2.925000 0.010001 -2.625000
v -3.000000 0.010001 -2.625000
v -3.000000 0.010001 -1.875000
v -2.925000 0.010001 -1.875000
v -3.000000 0.010000 -1.125000
v -2.925000 0.010000 -1.125000
v -3.000000 0.010000 -0.375000
v -2.925000 0.010000 -0.375000
v 0.000000 0.010000 0.000000
v -0.000000 0.010001 -3.000000
v -0.075000 0.010000 0.000000
v -0.075000 0.010001 -3.000000
v -0.075000 0.010001 -2.625000
v -0.000000 0.010001 -2.625000
v -0.000000 0.010001 -1.875000
v -0.075000 0.010001 -1.875000
v -0.000000 0.010000 -1.125000
v -0.075000 0.010000 -1.125000
v -0.000000 0.010000 -0.375000
v -0.075000 0.010000 -0.375000
v -1.500000 0.010000 0.000000
v -1.500000 0.010001 -3.000000
v -1.500000 0.010001 -2.625000
v -1.500000 0.010001 -1.875000
v -1.500000 0.010000 -1.125000
v -1.500000 0.010000 -0.375000
v 3.000000 0.010000 0.000000
v 6.000000 0.010000 0.000000
v 3.000000 0.010001 -3.000000
v 5.999999 0.010001 -3.000000
v 3.075000 0.010000 0.000000
v 3.075000 0.010001 -3.000000
v 6.000000 0.010001 -2.625000
v 3.075000 0.010001 -2.625000
v 3.000000 0.010001 -2.625000
v 3.000000 0.010001 -1.875000
v 6.000000 0.010001 -1.875000
v 3.075000 0.010001 -1.875000
v 3.000000 0.010000 -1.125000
v 6.000000 0.010000 -1.125000
v 3.075000 0.010000 -1.125000
v 3.000000 0.010000 -0.375000
v 6.000000 0.010000 -0.375000
v 3.075000 0.010000 -0.375000
v -6.000000 0.010000 0.000000
v 5.925000 -0.000000 -0.000000
v 5.925000 0.000001 -3.000000
v 6.075000 -0.000000 -0.000000
v 6.075000 0.000001 -3.000000
v 5.938307 0.150000 0.000000
v 5.925000 0.136692 0.000000
v 5.925000 0.136693 -3.000000
v 5.938307 0.150001 -3.000000
v 6.075000 0.136692 0.000000
v 6.061692 0.150000 0.000000
v 6.061692 0.150001 -3.000000
v 6.075000 0.136693 -3.000000
vn -0.0000 1.0000 -0.0000
vn 1.0000 -0.0000 -0.0000
vn -1.0000 -0.0000 -0.0000
vn -0.0000 -1.0000 -0.0000
vn -0.0000 -0.0000 -1.0000
vn -0.7071 0.7071 -0.0000
vn 0.7071 0.7071 -0.0000
vn -0.0000 -0.0000 1.0000
vt 0.394999 0.038741
vt 0.395840 0.038741
vt 0.394999 0.041897
vt 0.395840 0.041897
vt 0.895712 0.019806
vt 0.896554 0.019806
vt 0.895712 0.022962
vt 0.896554 0.022962
vt 0.895712 0.032429
vt 0.896554 0.032429
vt 0.895712 0.035585
vt 0.896554 0.035585
vt 0.394999 0.029273
vt 0.395840 0.029273
vt 0.394999 0.032429
vt 0.395840 0.032429
vt 0.394999 0.016650
vt 0.395840 0.016650
vt 0.394999 0.019806
vt 0.395840 0.019806
vt 0.408043 0.016650
vt 0.408043 0.019806
vt 0.408043 0.029273
vt 0.408043 0.032429
vt 0.395840 0.035585
vt 0.408043 0.037163
vt 0.395840 0.022962
vt 0.408043 0.022962
vt 0.408043 0.041897
vt 0.418485 0.016650
vt 0.418485 0.019806
vt 0.418485 0.029273
vt 0.418485 0.032429
vt 0.418485 0.037163
vt 0.418485 0.022962
vt 0.418485 0.041897
vt 0.408043 0.022962
vt 0.589207 0.033391
vt 0.594721 0.033391
vt 0.589207 0.040094
vt 0.594721 0.040094
vt 0.581909 0.033391
vt 0.588018 0.033391
vt 0.581909 0.040094
vt 0.588018 0.040094
vt 0.581909 0.019984
vt 0.588018 0.019984
vt 0.581909 0.026687
vt 0.588018 0.026687
vt 0.575205 0.033391
vt 0.575205 0.040094
vt 0.588613 0.027282
vt 0.588613 0.032796
vt 0.595316 0.040094
vt 0.595316 0.033391
vt 0.581909 0.046798
vt 0.588613 0.040689
vt 0.588018 0.046798
vt 0.588613 0.046203
s 1
usemtl City_01.002
f 116/60/9 115/61/9 111/62/9
f 111/62/9 115/61/9 113/63/9
f 123/64/9 125/65/9 120/66/9
f 120/66/9 125/65/9 122/67/9
f 117/68/9 119/69/9 116/70/9
f 116/70/9 119/69/9 115/71/9
f 120/72/9 122/73/9 117/74/9
f 117/74/9 122/73/9 119/75/9
f 109/76/9 112/77/9 123/78/9
f 123/78/9 112/77/9 125/79/9
f 131/60/9 130/61/9 127/62/9
f 127/62/9 130/61/9 129/63/9
f 136/64/9 137/65/9 134/66/9
f 134/66/9 137/65/9 135/67/9
f 132/68/9 133/69/9 131/70/9
f 131/70/9 133/69/9 130/71/9
f 134/72/9 135/73/9 132/74/9
f 132/74/9 135/73/9 133/75/9
f 126/76/9 128/77/9 136/78/9
f 136/78/9 128/77/9 137/79/9
f 128/77/9 150/80/9 137/79/9
f 137/79/9 150/80/9 155/81/9
f 135/73/9 154/82/9 133/75/9
f 133/75/9 154/82/9 153/83/9
f 133/75/9 153/83/9 130/84/9
f 130/84/9 153/83/9 152/85/9
f 137/79/9 155/81/9 135/86/9
f 135/86/9 155/81/9 154/87/9
f 130/61/9 152/85/9 129/63/9
f 129/63/9 152/85/9 151/88/9
f 143/60/9 139/62/9 142/61/9
f 142/61/9 139/62/9 141/63/9
f 148/64/9 146/66/9 149/65/9
f 149/65/9 146/66/9 147/67/9
f 144/68/9 143/70/9 145/69/9
f 145/69/9 143/70/9 142/71/9
f 146/72/9 144/74/9 147/73/9
f 147/73/9 144/74/9 145/75/9
f 138/76/9 148/78/9 140/77/9
f 140/77/9 148/78/9 149/79/9
f 140/77/9 149/79/9 150/80/9
f 150/80/9 149/79/9 155/81/9
f 147/73/9 145/75/9 154/82/9
f 154/82/9 145/75/9 153/83/9
f 145/75/9 142/84/9 153/83/9
f 153/83/9 142/84/9 152/85/9
f 149/79/9 147/86/9 155/81/9
f 155/81/9 147/86/9 154/87/9
f 142/61/9 141/63/9 152/85/9
f 152/85/9 141/63/9 151/88/9
f 161/60/9 160/61/9 157/62/9
f 157/62/9 160/61/9 159/63/9
f 166/64/9 167/65/9 164/66/9
f 164/66/9 167/65/9 165/67/9
f 162/68/9 163/69/9 161/70/9
f 161/70/9 163/69/9 160/71/9
f 164/72/9 165/73/9 162/74/9
f 162/74/9 165/73/9 163/75/9
f 156/76/9 158/77/9 166/78/9
f 166/78/9 158/77/9 167/79/9
f 158/77/9 180/80/9 167/79/9
f 167/79/9 180/80/9 185/81/9
f 165/73/9 184/82/9 163/75/9
f 163/75/9 184/82/9 183/83/9
f 163/75/9 183/83/9 160/84/9
f 160/84/9 183/83/9 182/85/9
f 167/79/9 185/81/9 165/86/9
f 165/86/9 185/81/9 184/87/9
f 160/61/9 182/85/9 159/63/9
f 159/63/9 182/85/9 181/88/9
f 173/60/9 169/62/9 172/61/9
f 172/61/9 169/62/9 171/63/9
f 178/64/9 176/66/9 179/65/9
f 179/65/9 176/66/9 177/67/9
f 174/68/9 173/70/9 175/69/9
f 175/69/9 173/70/9 172/71/9
f 176/72/9 174/74/9 177/73/9
f 177/73/9 174/74/9 175/75/9
f 168/76/9 178/78/9 170/77/9
f 170/77/9 178/78/9 179/79/9
f 170/77/9 179/79/9 180/80/9
f 180/80/9 179/79/9 185/81/9
f 177/73/9 175/75/9 184/82/9
f 184/82/9 175/75/9 183/83/9
f 175/75/9 172/84/9 183/83/9
f 183/83/9 172/84/9 182/85/9
f 179/79/9 177/86/9 185/81/9
f 185/81/9 177/86/9 184/87/9
f 172/61/9 171/63/9 182/85/9
f 182/85/9 171/63/9 181/88/9
f 194/60/9 193/61/9 188/62/9
f 188/62/9 193/61/9 191/63/9
f 201/64/9 203/65/9 198/66/9
f 198/66/9 203/65/9 200/67/9
f 195/68/9 197/69/9 194/70/9
f 194/70/9 197/69/9 193/71/9
f 198/72/9 200/73/9 195/74/9
f 195/74/9 200/73/9 197/75/9
f 186/76/9 190/77/9 201/78/9
f 201/78/9 190/77/9 203/79/9
f 112/77/9 110/89/9 125/79/9
f 125/79/9 110/89/9 124/90/9
f 122/73/9 121/91/9 119/75/9
f 119/75/9 121/91/9 118/92/9
f 119/75/9 118/92/9 115/84/9
f 115/84/9 118/92/9 114/93/9
f 125/79/9 124/90/9 122/86/9
f 122/86/9 124/90/9 121/94/9
f 115/61/9 114/93/9 113/63/9
f 113/63/9 114/93/9 204/95/9
f 190/77/9 187/80/9 203/79/9
f 203/79/9 187/80/9 202/81/9
f 200/73/9 199/82/9 197/75/9
f 197/75/9 199/82/9 196/83/9
f 197/75/9 196/83/9 193/84/9
f 193/84/9 196/83/9 192/85/9
f 203/79/9 202/81/9 200/86/9
f 200/86/9 202/81/9 199/96/9
f 193/61/9 192/85/9 191/63/9
f 191/63/9 192/85/9 189/88/9
usemtl City_04.001
f 215/97/9 212/98/9 214/99/9
f 214/99/9 212/98/9 209/100/9
f 208/101/10 216/102/10 207/103/10
f 207/103/10 216/102/10 213/104/10
f 205/105/11 210/106/11 206/107/11
f 206/107/11 210/106/11 211/108/11
f 206/109/12 208/101/12 205/110/12
f 205/110/12 208/101/12 207/103/12
f 206/107/13 211/108/13 208/101/13
f 211/108/13 212/111/13 208/101/13
f 208/101/13 212/111/13 216/102/13
f 212/111/13 215/112/13 216/102/13
f 209/100/14 212/98/14 210/113/14
f 210/113/14 212/98/14 211/114/14
f 215/97/15 214/99/15 216/102/15
f 216/102/15 214/99/15 213/104/15
f 207/103/16 213/104/16 205/115/16
f 213/104/16 214/116/16 205/115/16
f 205/115/16 214/116/16 210/117/16
f 214/116/16 209/118/16 210/117/16
o RoadPart_07
v -6.200000 0.000000 -0.000000
v -6.048604 0.750000 -0.000000
v -6.200000 -0.000000 -3.000000
v -6.048604 0.750000 -3.000000
v -5.800000 0.000000 -0.000000
v -5.951396 0.750000 -0.000000
v -5.800000 -0.000000 -3.000000
v -5.951396 0.750000 -3.000000
v -6.119102 0.098958 -0.000000
v -6.119102 0.098958 -3.000000
v -5.880898 0.098958 -3.000000
v -5.880898 0.098958 -0.000000
vn -0.9942 0.1077 -0.0000
vn -0.0000 -0.0000 -1.0000
vn 0.9942 0.1077 -0.0000
vn -0.0000 -0.0000 1.0000
vn -0.0000 -1.0000 -0.0000
vn -0.0000 1.0000 -0.0000
vn 0.7742 0.6329 -0.0000
vn -0.7742 0.6329 -0.0000
vt 0.652893 0.026291
vt 0.653813 0.045408
vt 0.656323 0.026291
vt 0.655403 0.045408
vt 0.650203 0.023385
vt 0.659012 0.023385
vt 0.650203 0.023385
vt 0.659012 0.023385
s 1
usemtl City_04
f 225/119/17 218/120/17 226/119/17
f 226/119/17 218/120/17 220/120/17
f 226/119/18 220/120/18 227/121/18
f 227/121/18 220/120/18 224/122/18
f 227/121/19 224/122/19 228/121/19
f 228/121/19 224/122/19 222/122/19
f 228/121/20 222/122/20 225/119/20
f 225/119/20 222/122/20 218/120/20
f 219/123/21 223/124/21 217/125/21
f 217/125/21 223/124/21 221/126/21
f 224/122/22 220/120/22 222/122/22
f 222/122/22 220/120/22 218/120/22
f 221/126/20 228/121/20 217/125/20
f 217/125/20 228/121/20 225/119/20
f 223/124/23 227/121/23 221/126/23
f 221/126/23 227/121/23 228/121/23
f 219/123/18 226/119/18 223/124/18
f 223/124/18 226/119/18 227/121/18
f 217/125/24 225/119/24 219/123/24
f 219/123/24 225/119/24 226/119/24
o Tile_10
v 15.049999 0.129999 0.000000
v 18.049999 0.129999 0.000000
v 15.049999 0.130001 -3.000000
v 18.049999 0.130001 -3.000000
vn -0.0000 1.0000 -0.0000
vt 0.502959 0.508348
vt 0.503202 0.508348
s 1
usemtl City_04.063
f 229/127/25 230/128/25 231/127/25
f 231/127/25 230/128/25 232/128/25
o Tile_10.001
v 6.050000 0.129999 0.000000
v 9.050000 0.129999 0.000000
v 6.050000 0.130001 -3.000000
v 9.050000 0.130001 -3.000000
vn -0.0000 1.0000 -0.0000
vt 0.502959 0.508348
vt 0.503202 0.508348
s 1
usemtl City_04.002
f 233/129/26 234/130/26 235/129/26
f 235/129/26 234/130/26 236/130/26
o Tile_10.002
v 9.050000 0.129999 0.000000
v 12.050000 0.129999 0.000000
v 9.050000 0.130001 -3.000000
v 12.050000 0.130001 -3.000000
vn -0.0000 1.0000 -0.0000
vt 0.502959 0.508348
vt 0.503202 0.508348
s 1
usemtl City_04.003
f 237/131/27 238/132/27 239/131/27
f 239/131/27 238/132/27 240/132/27
o Tile_10.003
v 12.050000 0.129999 0.000000
v 15.050000 0.129999 0.000000
v 12.050000 0.130001 -3.000000
v 15.050000 0.130001 -3.000000
vn -0.0000 1.0000 -0.0000
vt 0.502959 0.508348
vt 0.503202 0.508348
s 1
usemtl City_04.004
f 241/133/28 242/134/28 243/133/28
f 243/133/28 242/134/28 244/134/28
o Tile_10.004
v -21.049999 0.129999 0.000000
v -18.049999 0.129999 0.000000
v -21.049999 0.130001 -3.000000
v -18.049999 0.130001 -3.000000
vn -0.0000 1.0000 -0.0000
vt 0.502959 0.508348
vt 0.503202 0.508348
s 1
usemtl City_04.005
f 245/135/29 246/136/29 247/135/29
f 247/135/29 246/136/29 248/136/29
o Tile_10.005
v -24.049999 0.129999 0.000000
v -21.049999 0.129999 0.000000
v -24.049999 0.130001 -3.000000
v -21.049999 0.130001 -3.000000
vn -0.0000 1.0000 -0.0000
vt 0.502959 0.508348
vt 0.503202 0.508348
s 1
usemtl City_04.006
f 249/137/30 250/138/30 251/137/30
f 251/137/30 250/138/30 252/138/30
o Tile_10.006
v -27.049999 0.129999 0.000000
v -24.049999 0.129999 0.000000
v -27.049999 0.130001 -3.000000
v -24.049999 0.130001 -3.000000
vn -0.0000 1.0000 -0.0000
vt 0.502959 0.508348
vt 0.503202 0.508348
s 1
usemtl City_04.007
f 253/139/31 254/140/31 255/139/31
f 255/139/31 254/140/31 256/140/31
o Tile_10.007
v -30.049999 0.129999 0.000000
v -27.049999 0.129999 0.000000
v -30.049999 0.130001 -3.000000
v -27.049999 0.130001 -3.000000
vn -0.0000 1.0000 -0.0000
vt 0.502959 0.508348
vt 0.503202 0.508348
s 1
usemtl City_04.008
f 257/141/32 258/142/32 259/141/32
f 259/141/32 258/142/32 260/142/32
