# Blender 3.6.4
# www.blender.org
mtllib 0.mtl
o 0
v 0.041540 0.251604 0.000000
v 0.041828 0.272987 0.000000
v 0.042694 0.293458 0.000000
v 0.044136 0.313017 0.000000
v 0.046156 0.331663 0.000000
v 0.048752 0.349397 0.000000
v 0.051925 0.366219 0.000000
v 0.055675 0.382129 0.000000
v 0.060002 0.397126 0.000000
v 0.064906 0.411210 0.000000
v 0.070387 0.424383 0.000000
v 0.076445 0.436643 0.000000
v 0.083080 0.447991 0.000000
v 0.090294 0.458428 0.000000
v 0.098090 0.467958 0.000000
v 0.106467 0.476581 0.000000
v 0.115426 0.484296 0.000000
v 0.124967 0.491103 0.000000
v 0.135089 0.497003 0.000000
v 0.145793 0.501995 0.000000
v 0.157079 0.506079 0.000000
v 0.168946 0.509256 0.000000
v 0.181395 0.511525 0.000000
v 0.194426 0.512886 0.000000
v 0.208038 0.513340 0.000000
v 0.221704 0.512887 0.000000
v 0.234784 0.511530 0.000000
v 0.247277 0.509266 0.000000
v 0.259184 0.506098 0.000000
v 0.270505 0.502024 0.000000
v 0.281239 0.497045 0.000000
v 0.291388 0.491160 0.000000
v 0.300949 0.484371 0.000000
v 0.309925 0.476676 0.000000
v 0.318314 0.468076 0.000000
v 0.326117 0.458570 0.000000
v 0.333333 0.448159 0.000000
v 0.339968 0.436836 0.000000
v 0.346026 0.424594 0.000000
v 0.351507 0.411432 0.000000
v 0.356411 0.397351 0.000000
v 0.360738 0.382350 0.000000
v 0.364488 0.366430 0.000000
v 0.367662 0.349591 0.000000
v 0.370258 0.331832 0.000000
v 0.372277 0.313154 0.000000
v 0.373719 0.293557 0.000000
v 0.374585 0.273040 0.000000
v 0.374873 0.251604 0.000000
v 0.374585 0.230222 0.000000
v 0.373719 0.209755 0.000000
v 0.372277 0.190202 0.000000
v 0.370258 0.171564 0.000000
v 0.367662 0.153840 0.000000
v 0.364488 0.137031 0.000000
v 0.360738 0.121137 0.000000
v 0.356411 0.106158 0.000000
v 0.351507 0.092093 0.000000
v 0.346026 0.078943 0.000000
v 0.339968 0.066708 0.000000
v 0.333333 0.055387 0.000000
v 0.326117 0.044976 0.000000
v 0.318314 0.035470 0.000000
v 0.309925 0.026870 0.000000
v 0.300949 0.019175 0.000000
v 0.291388 0.012386 0.000000
v 0.281239 0.006501 0.000000
v 0.270505 0.001522 0.000000
v 0.259184 -0.002552 -0.000000
v 0.247277 -0.005720 -0.000000
v 0.234784 -0.007983 -0.000000
v 0.221704 -0.009341 -0.000000
v 0.208038 -0.009794 -0.000000
v 0.194426 -0.009340 -0.000000
v 0.181395 -0.007979 -0.000000
v 0.168946 -0.005710 -0.000000
v 0.157079 -0.002533 -0.000000
v 0.145793 0.001551 0.000000
v 0.135089 0.006543 0.000000
v 0.124967 0.012443 0.000000
v 0.115426 0.019250 0.000000
v 0.106467 0.026965 0.000000
v 0.098090 0.035588 0.000000
v 0.090294 0.045118 0.000000
v 0.083080 0.055556 0.000000
v 0.076445 0.066901 0.000000
v 0.070387 0.079154 0.000000
v 0.064906 0.092315 0.000000
v 0.060002 0.106383 0.000000
v 0.055675 0.121359 0.000000
v 0.051925 0.137242 0.000000
v 0.048752 0.154034 0.000000
v 0.046156 0.171733 0.000000
v 0.044136 0.190339 0.000000
v 0.042694 0.209853 0.000000
v 0.041828 0.230275 0.000000
v 0.157717 0.116852 0.000000
v 0.160491 0.110110 0.000000
v 0.163524 0.103953 0.000000
v 0.166814 0.098383 0.000000
v 0.170363 0.093399 0.000000
v 0.174169 0.089002 0.000000
v 0.178234 0.085191 0.000000
v 0.182556 0.081966 0.000000
v 0.187136 0.079328 0.000000
v 0.191975 0.077275 0.000000
v 0.197071 0.075810 0.000000
v 0.202425 0.074930 0.000000
v 0.208038 0.074637 0.000000
v 0.213704 0.074930 0.000000
v 0.219108 0.075810 0.000000
v 0.224249 0.077275 0.000000
v 0.229127 0.079328 0.000000
v 0.233742 0.081966 0.000000
v 0.238095 0.085191 0.000000
v 0.242185 0.089002 0.000000
v 0.246013 0.093399 0.000000
v 0.249578 0.098383 0.000000
v 0.252880 0.103953 0.000000
v 0.255920 0.110110 0.000000
v 0.258696 0.116852 0.000000
v 0.261232 0.124238 0.000000
v 0.263546 0.132322 0.000000
v 0.265641 0.141105 0.000000
v 0.267515 0.150587 0.000000
v 0.269168 0.160768 0.000000
v 0.270601 0.171648 0.000000
v 0.271814 0.183227 0.000000
v 0.272806 0.195505 0.000000
v 0.273577 0.208481 0.000000
v 0.274128 0.222157 0.000000
v 0.274459 0.236531 0.000000
v 0.274569 0.251604 0.000000
v 0.274553 0.257406 0.000000
v 0.274504 0.263106 0.000000
v 0.274422 0.268701 0.000000
v 0.274307 0.274194 0.000000
v 0.274159 0.279584 0.000000
v 0.273978 0.284870 0.000000
v 0.273765 0.290053 0.000000
v 0.273519 0.295133 0.000000
v 0.273240 0.300110 0.000000
v 0.272928 0.304983 0.000000
v 0.272583 0.309754 0.000000
v 0.272205 0.314421 0.000000
v 0.154340 0.126646 0.000000
v 0.154621 0.125753 0.000000
v 0.154903 0.124873 0.000000
v 0.155184 0.124008 0.000000
v 0.155465 0.123157 0.000000
v 0.155747 0.122319 0.000000
v 0.156028 0.121496 0.000000
v 0.156310 0.120687 0.000000
v 0.156591 0.119892 0.000000
v 0.156873 0.119111 0.000000
v 0.157154 0.118344 0.000000
v 0.157436 0.117591 0.000000
v 0.208038 0.428909 0.000000
v 0.202426 0.428616 0.000000
v 0.197071 0.427736 0.000000
v 0.191975 0.426271 0.000000
v 0.187136 0.424219 0.000000
v 0.182556 0.421580 0.000000
v 0.178234 0.418355 0.000000
v 0.174169 0.414544 0.000000
v 0.170363 0.410147 0.000000
v 0.166814 0.405163 0.000000
v 0.163524 0.399593 0.000000
v 0.160491 0.393436 0.000000
v 0.157717 0.386694 0.000000
v 0.155182 0.379306 0.000000
v 0.152867 0.371215 0.000000
v 0.150773 0.362420 0.000000
v 0.148899 0.352921 0.000000
v 0.147245 0.342719 0.000000
v 0.145812 0.331814 0.000000
v 0.144600 0.320204 0.000000
v 0.143608 0.307891 0.000000
v 0.142836 0.294875 0.000000
v 0.142285 0.281155 0.000000
v 0.141954 0.266731 0.000000
v 0.141844 0.251604 0.000000
v 0.141853 0.246855 0.000000
v 0.141881 0.242176 0.000000
v 0.141928 0.237568 0.000000
v 0.141994 0.233029 0.000000
v 0.142079 0.228562 0.000000
v 0.142182 0.224164 0.000000
v 0.142304 0.219837 0.000000
v 0.142444 0.215580 0.000000
v 0.142604 0.211394 0.000000
v 0.142782 0.207278 0.000000
v 0.142979 0.203232 0.000000
v 0.143195 0.199257 0.000000
v 0.259372 0.384667 0.000000
v 0.259316 0.384836 0.000000
v 0.259259 0.385005 0.000000
v 0.259203 0.385174 0.000000
v 0.259147 0.385343 0.000000
v 0.259090 0.385512 0.000000
v 0.259034 0.385680 0.000000
v 0.258978 0.385849 0.000000
v 0.258921 0.386018 0.000000
v 0.258865 0.386187 0.000000
v 0.258809 0.386356 0.000000
v 0.258753 0.386525 0.000000
v 0.258696 0.386694 0.000000
v 0.255920 0.393436 0.000000
v 0.252880 0.399593 0.000000
v 0.249578 0.405163 0.000000
v 0.246013 0.410147 0.000000
v 0.242185 0.414544 0.000000
v 0.238095 0.418355 0.000000
v 0.233742 0.421580 0.000000
v 0.229127 0.424219 0.000000
v 0.224249 0.426271 0.000000
v 0.219108 0.427736 0.000000
v 0.213704 0.428616 0.000000
vn -0.0000 -0.0000 1.0000
vt 0.105991 0.000000
vt 0.115207 0.000000
vt 0.110599 0.000000
vt 0.119816 0.000000
vt 0.101382 0.000000
vt 0.124424 0.000000
vt 0.096774 0.000000
vt 0.129032 0.000000
vt 0.092166 0.000000
vt 0.133641 0.000000
vt 0.087558 0.000000
vt 0.138249 0.000000
vt 0.082949 0.000000
vt 0.142857 0.000000
vt 0.078341 0.000000
vt 0.147465 0.000000
vt 0.073733 0.000000
vt 0.152074 0.000000
vt 0.069124 0.000000
vt 0.156682 0.000000
vt 0.064516 0.000000
vt 0.161290 0.000000
vt 0.059908 0.000000
vt 0.165899 0.000000
vt 0.055300 0.000000
vt 0.170507 0.000000
vt 0.050691 0.000000
vt 0.175115 0.000000
vt 0.046083 0.000000
vt 0.723502 0.000000
vt 0.728111 0.000000
vt 1.000000 0.000000
vt 0.732719 0.000000
vt 0.995392 0.000000
vt 0.737327 0.000000
vt 0.990783 0.000000
vt 0.986175 0.000000
vt 0.741935 0.000000
vt 0.179724 0.000000
vt 0.041475 0.000000
vt 0.981567 0.000000
vt 0.746544 0.000000
vt 0.976959 0.000000
vt 0.751152 0.000000
vt 0.972350 0.000000
vt 0.755760 0.000000
vt 0.967742 0.000000
vt 0.760369 0.000000
vt 0.184332 0.000000
vt 0.036866 0.000000
vt 0.963134 0.000000
vt 0.764977 0.000000
vt 0.958525 0.000000
vt 0.769585 0.000000
vt 0.774194 0.000000
vt 0.953917 0.000000
vt 0.188940 0.000000
vt 0.032258 0.000000
vt 0.778802 0.000000
vt 0.949309 0.000000
vt 0.783410 0.000000
vt 0.944700 0.000000
vt 0.940092 0.000000
vt 0.935484 0.000000
vt 0.930876 0.000000
vt 0.926267 0.000000
vt 0.921659 0.000000
vt 0.917051 0.000000
vt 0.912442 0.000000
vt 0.907834 0.000000
vt 0.903226 0.000000
vt 0.898618 0.000000
vt 0.894009 0.000000
vt 0.889401 0.000000
vt 0.663594 0.000000
vt 0.193548 0.000000
vt 0.027650 0.000000
vt 0.788018 0.000000
vt 0.792627 0.000000
vt 0.198157 0.000000
vt 0.023041 0.000000
vt 0.797235 0.000000
vt 0.801843 0.000000
vt 0.202765 0.000000
vt 0.018433 0.000000
vt 0.806452 0.000000
vt 0.207373 0.000000
vt 0.811060 0.000000
vt 0.013825 0.000000
vt 0.815668 0.000000
vt 0.668203 0.000000
vt 0.658986 0.000000
vt 0.211982 0.000000
vt 0.009217 0.000000
vt 0.654378 0.000000
vt 0.820276 0.000000
vt 0.649770 0.000000
vt 0.645161 0.000000
vt 0.640553 0.000000
vt 0.824885 0.000000
vt 0.216590 0.000000
vt 0.004608 0.000000
vt 0.635945 0.000000
vt 0.631336 0.000000
vt 0.829493 0.000000
vt 0.626728 0.000000
vt 0.622120 0.000000
vt 0.221198 0.000000
vt 0.000000 0.000000
vt 0.617512 0.000000
vt 0.834101 0.000000
vt 0.612903 0.000000
vt 0.608295 0.000000
vt 0.437788 0.000000
vt 0.838710 0.000000
vt 0.603687 0.000000
vt 0.225806 0.000000
vt 0.843318 0.000000
vt 0.847926 0.000000
vt 0.852535 0.000000
vt 0.599078 0.000000
vt 0.857143 0.000000
vt 0.433180 0.000000
vt 0.230415 0.000000
vt 0.861751 0.000000
vt 0.866359 0.000000
vt 0.594470 0.000000
vt 0.870968 0.000000
vt 0.875576 0.000000
vt 0.880184 0.000000
vt 0.428571 0.000000
vt 0.235023 0.000000
vt 0.589862 0.000000
vt 0.884793 0.000000
vt 0.585253 0.000000
vt 0.423963 0.000000
vt 0.239631 0.000000
vt 0.580645 0.000000
vt 0.419355 0.000000
vt 0.576037 0.000000
vt 0.244240 0.000000
vt 0.571429 0.000000
vt 0.414747 0.000000
vt 0.248848 0.000000
vt 0.566820 0.000000
vt 0.562212 0.000000
vt 0.410138 0.000000
vt 0.253456 0.000000
vt 0.557604 0.000000
vt 0.672811 0.000000
vt 0.677419 0.000000
vt 0.682028 0.000000
vt 0.552995 0.000000
vt 0.686636 0.000000
vt 0.691244 0.000000
vt 0.695853 0.000000
vt 0.700461 0.000000
vt 0.405530 0.000000
vt 0.258065 0.000000
vt 0.705069 0.000000
vt 0.709677 0.000000
vt 0.714286 0.000000
vt 0.718894 0.000000
vt 0.442396 0.000000
vt 0.447005 0.000000
vt 0.548387 0.000000
vt 0.451613 0.000000
vt 0.543779 0.000000
vt 0.400922 0.000000
vt 0.262673 0.000000
vt 0.456221 0.000000
vt 0.539171 0.000000
vt 0.460829 0.000000
vt 0.534562 0.000000
vt 0.465438 0.000000
vt 0.529954 0.000000
vt 0.396313 0.000000
vt 0.267281 0.000000
vt 0.470046 0.000000
vt 0.525346 0.000000
vt 0.474654 0.000000
vt 0.520737 0.000000
vt 0.479263 0.000000
vt 0.516129 0.000000
vt 0.483871 0.000000
vt 0.511521 0.000000
vt 0.391705 0.000000
vt 0.271889 0.000000
vt 0.488479 0.000000
vt 0.506912 0.000000
vt 0.493088 0.000000
vt 0.502304 0.000000
vt 0.497696 0.000000
vt 0.387097 0.000000
vt 0.276498 0.000000
vt 0.382488 0.000000
vt 0.281106 0.000000
vt 0.377880 0.000000
vt 0.285714 0.000000
vt 0.373272 0.000000
vt 0.290323 0.000000
vt 0.368664 0.000000
vt 0.294931 0.000000
vt 0.364055 0.000000
vt 0.299539 0.000000
vt 0.359447 0.000000
vt 0.304147 0.000000
vt 0.354839 0.000000
vt 0.308756 0.000000
vt 0.350230 0.000000
vt 0.313364 0.000000
vt 0.345622 0.000000
vt 0.317972 0.000000
vt 0.341014 0.000000
vt 0.322581 0.000000
vt 0.336406 0.000000
vt 0.327189 0.000000
vt 0.331797 0.000000
s 0
usemtl City_07
f 24/1/1 26/2/1 25/3/1
f 24/1/1 27/4/1 26/2/1
f 23/5/1 27/4/1 24/1/1
f 23/5/1 28/6/1 27/4/1
f 22/7/1 28/6/1 23/5/1
f 22/7/1 29/8/1 28/6/1
f 21/9/1 29/8/1 22/7/1
f 21/9/1 30/10/1 29/8/1
f 20/11/1 30/10/1 21/9/1
f 20/11/1 31/12/1 30/10/1
f 19/13/1 31/12/1 20/11/1
f 19/13/1 32/14/1 31/12/1
f 18/15/1 32/14/1 19/13/1
f 18/15/1 33/16/1 32/14/1
f 17/17/1 33/16/1 18/15/1
f 17/17/1 34/18/1 33/16/1
f 16/19/1 34/18/1 17/17/1
f 16/19/1 35/20/1 34/18/1
f 15/21/1 35/20/1 16/19/1
f 15/21/1 36/22/1 35/20/1
f 14/23/1 36/22/1 15/21/1
f 14/23/1 37/24/1 36/22/1
f 13/25/1 37/24/1 14/23/1
f 13/25/1 38/26/1 37/24/1
f 12/27/1 38/26/1 13/25/1
f 12/27/1 39/28/1 38/26/1
f 11/29/1 158/30/1 12/27/1
f 158/30/1 39/28/1 12/27/1
f 11/29/1 159/31/1 158/30/1
f 218/32/1 39/28/1 158/30/1
f 11/29/1 160/33/1 159/31/1
f 217/34/1 39/28/1 218/32/1
f 11/29/1 161/35/1 160/33/1
f 216/36/1 39/28/1 217/34/1
f 215/37/1 39/28/1 216/36/1
f 11/29/1 162/38/1 161/35/1
f 215/37/1 40/39/1 39/28/1
f 10/40/1 162/38/1 11/29/1
f 214/41/1 40/39/1 215/37/1
f 10/40/1 163/42/1 162/38/1
f 213/43/1 40/39/1 214/41/1
f 10/40/1 164/44/1 163/42/1
f 212/45/1 40/39/1 213/43/1
f 10/40/1 165/46/1 164/44/1
f 211/47/1 40/39/1 212/45/1
f 10/40/1 166/48/1 165/46/1
f 211/47/1 41/49/1 40/39/1
f 9/50/1 166/48/1 10/40/1
f 210/51/1 41/49/1 211/47/1
f 9/50/1 167/52/1 166/48/1
f 209/53/1 41/49/1 210/51/1
f 9/50/1 168/54/1 167/52/1
f 9/50/1 169/55/1 168/54/1
f 208/56/1 41/49/1 209/53/1
f 208/56/1 42/57/1 41/49/1
f 8/58/1 169/55/1 9/50/1
f 8/58/1 170/59/1 169/55/1
f 207/60/1 42/57/1 208/56/1
f 8/58/1 171/61/1 170/59/1
f 206/62/1 42/57/1 207/60/1
f 205/63/1 42/57/1 206/62/1
f 204/64/1 42/57/1 205/63/1
f 203/65/1 42/57/1 204/64/1
f 202/66/1 42/57/1 203/65/1
f 201/67/1 42/57/1 202/66/1
f 200/68/1 42/57/1 201/67/1
f 199/69/1 42/57/1 200/68/1
f 198/70/1 42/57/1 199/69/1
f 197/71/1 42/57/1 198/70/1
f 196/72/1 42/57/1 197/71/1
f 195/73/1 42/57/1 196/72/1
f 194/74/1 145/75/1 195/73/1
f 145/75/1 42/57/1 195/73/1
f 145/75/1 43/76/1 42/57/1
f 7/77/1 171/61/1 8/58/1
f 7/77/1 172/78/1 171/61/1
f 7/77/1 173/79/1 172/78/1
f 145/75/1 44/80/1 43/76/1
f 6/81/1 173/79/1 7/77/1
f 6/81/1 174/82/1 173/79/1
f 6/81/1 175/83/1 174/82/1
f 145/75/1 45/84/1 44/80/1
f 5/85/1 175/83/1 6/81/1
f 5/85/1 176/86/1 175/83/1
f 145/75/1 46/87/1 45/84/1
f 5/85/1 177/88/1 176/86/1
f 4/89/1 177/88/1 5/85/1
f 4/89/1 178/90/1 177/88/1
f 194/74/1 146/91/1 145/75/1
f 144/92/1 46/87/1 145/75/1
f 144/92/1 47/93/1 46/87/1
f 3/94/1 178/90/1 4/89/1
f 143/95/1 47/93/1 144/92/1
f 3/94/1 179/96/1 178/90/1
f 142/97/1 47/93/1 143/95/1
f 141/98/1 47/93/1 142/97/1
f 140/99/1 47/93/1 141/98/1
f 3/94/1 180/100/1 179/96/1
f 140/99/1 48/101/1 47/93/1
f 2/102/1 180/100/1 3/94/1
f 139/103/1 48/101/1 140/99/1
f 138/104/1 48/101/1 139/103/1
f 2/102/1 181/105/1 180/100/1
f 137/106/1 48/101/1 138/104/1
f 136/107/1 48/101/1 137/106/1
f 136/107/1 49/108/1 48/101/1
f 1/109/1 181/105/1 2/102/1
f 135/110/1 49/108/1 136/107/1
f 1/109/1 182/111/1 181/105/1
f 134/112/1 49/108/1 135/110/1
f 133/113/1 49/108/1 134/112/1
f 96/114/1 182/111/1 1/109/1
f 96/114/1 183/115/1 182/111/1
f 132/116/1 49/108/1 133/113/1
f 132/116/1 50/117/1 49/108/1
f 96/114/1 184/118/1 183/115/1
f 96/114/1 185/119/1 184/118/1
f 96/114/1 186/120/1 185/119/1
f 131/121/1 50/117/1 132/116/1
f 96/114/1 187/122/1 186/120/1
f 95/123/1 187/122/1 96/114/1
f 131/121/1 51/124/1 50/117/1
f 95/123/1 188/125/1 187/122/1
f 95/123/1 189/126/1 188/125/1
f 130/127/1 51/124/1 131/121/1
f 95/123/1 190/128/1 189/126/1
f 95/123/1 191/129/1 190/128/1
f 95/123/1 192/130/1 191/129/1
f 94/131/1 192/130/1 95/123/1
f 130/127/1 52/132/1 51/124/1
f 129/133/1 52/132/1 130/127/1
f 94/131/1 193/134/1 192/130/1
f 94/131/1 194/74/1 193/134/1
f 94/131/1 146/91/1 194/74/1
f 128/135/1 52/132/1 129/133/1
f 93/136/1 146/91/1 94/131/1
f 128/135/1 53/137/1 52/132/1
f 127/138/1 53/137/1 128/135/1
f 92/139/1 146/91/1 93/136/1
f 126/140/1 53/137/1 127/138/1
f 126/140/1 54/141/1 53/137/1
f 125/142/1 54/141/1 126/140/1
f 91/143/1 146/91/1 92/139/1
f 125/142/1 55/144/1 54/141/1
f 124/145/1 55/144/1 125/142/1
f 123/146/1 55/144/1 124/145/1
f 90/147/1 146/91/1 91/143/1
f 123/146/1 56/148/1 55/144/1
f 122/149/1 56/148/1 123/146/1
f 90/147/1 147/150/1 146/91/1
f 90/147/1 148/151/1 147/150/1
f 90/147/1 149/152/1 148/151/1
f 121/153/1 56/148/1 122/149/1
f 90/147/1 150/154/1 149/152/1
f 90/147/1 151/155/1 150/154/1
f 90/147/1 152/156/1 151/155/1
f 90/147/1 153/157/1 152/156/1
f 89/158/1 153/157/1 90/147/1
f 121/153/1 57/159/1 56/148/1
f 89/158/1 154/160/1 153/157/1
f 89/158/1 155/161/1 154/160/1
f 89/158/1 156/162/1 155/161/1
f 89/158/1 157/163/1 156/162/1
f 89/158/1 97/164/1 157/163/1
f 89/158/1 98/165/1 97/164/1
f 120/166/1 57/159/1 121/153/1
f 89/158/1 99/167/1 98/165/1
f 119/168/1 57/159/1 120/166/1
f 88/169/1 99/167/1 89/158/1
f 119/168/1 58/170/1 57/159/1
f 88/169/1 100/171/1 99/167/1
f 118/172/1 58/170/1 119/168/1
f 88/169/1 101/173/1 100/171/1
f 117/174/1 58/170/1 118/172/1
f 88/169/1 102/175/1 101/173/1
f 116/176/1 58/170/1 117/174/1
f 87/177/1 102/175/1 88/169/1
f 116/176/1 59/178/1 58/170/1
f 87/177/1 103/179/1 102/175/1
f 115/180/1 59/178/1 116/176/1
f 87/177/1 104/181/1 103/179/1
f 114/182/1 59/178/1 115/180/1
f 87/177/1 105/183/1 104/181/1
f 113/184/1 59/178/1 114/182/1
f 87/177/1 106/185/1 105/183/1
f 112/186/1 59/178/1 113/184/1
f 86/187/1 106/185/1 87/177/1
f 112/186/1 60/188/1 59/178/1
f 86/187/1 107/189/1 106/185/1
f 111/190/1 60/188/1 112/186/1
f 86/187/1 108/191/1 107/189/1
f 110/192/1 60/188/1 111/190/1
f 86/187/1 109/193/1 108/191/1
f 109/193/1 60/188/1 110/192/1
f 86/187/1 60/188/1 109/193/1
f 85/194/1 60/188/1 86/187/1
f 85/194/1 61/195/1 60/188/1
f 84/196/1 61/195/1 85/194/1
f 84/196/1 62/197/1 61/195/1
f 83/198/1 62/197/1 84/196/1
f 83/198/1 63/199/1 62/197/1
f 82/200/1 63/199/1 83/198/1
f 82/200/1 64/201/1 63/199/1
f 81/202/1 64/201/1 82/200/1
f 81/202/1 65/203/1 64/201/1
f 80/204/1 65/203/1 81/202/1
f 80/204/1 66/205/1 65/203/1
f 79/206/1 66/205/1 80/204/1
f 79/206/1 67/207/1 66/205/1
f 78/208/1 67/207/1 79/206/1
f 78/208/1 68/209/1 67/207/1
f 77/210/1 68/209/1 78/208/1
f 77/210/1 69/211/1 68/209/1
f 76/212/1 69/211/1 77/210/1
f 76/212/1 70/213/1 69/211/1
f 75/214/1 70/213/1 76/212/1
f 75/214/1 71/215/1 70/213/1
f 74/216/1 71/215/1 75/214/1
f 74/216/1 72/217/1 71/215/1
f 73/218/1 72/217/1 74/216/1
