# Blender 3.6.4
# www.blender.org
mtllib 7.mtl
o 7
v 0.045593 0.504221 0.000000
v 0.364404 0.504221 0.000000
v 0.364404 0.433637 0.000000
v 0.193516 0.000000 0.000000
v 0.091861 0.000000 0.000000
v 0.255995 0.416413 0.000000
v 0.045593 0.416413 0.000000
vn -0.0000 -0.0000 1.0000
vt 1.000000 0.000000
vt 0.166667 0.000000
vt 0.000000 0.000000
vt 0.333333 0.000000
vt 0.833333 0.000000
vt 0.500000 0.000000
vt 0.666667 0.000000
s 0
usemtl City_07
f 7/1/1 2/2/1 1/3/1
f 7/1/1 3/4/1 2/2/1
f 7/1/1 6/5/1 3/4/1
f 6/5/1 4/6/1 3/4/1
f 5/7/1 4/6/1 6/5/1
