# Blender 3.6.4
# www.blender.org
mtllib Needle.mtl
o Needle
v -31.000000 -31.000000 1.000002
v 0.690794 -0.723052 1.000000
v 0.690794 -0.723052 2.000000
v -31.000000 -31.000000 2.000002
v -0.723052 0.690794 1.000000
v -0.723052 0.690794 2.000000
v 0.836160 -0.548485 1.000000
v 0.938377 -0.345614 1.000000
v 0.992168 -0.124908 1.000000
v 0.994759 0.102244 1.000000
v 0.946016 0.324120 1.000000
v 0.848454 0.529270 1.000000
v 0.707107 0.707107 1.000000
v 0.529270 0.848454 1.000000
v 0.324120 0.946016 1.000000
v 0.102244 0.994759 1.000000
v -0.124908 0.992168 1.000000
v -0.345614 0.938377 1.000000
v -0.548485 0.836160 1.000000
v -0.548485 0.836160 2.000000
v -0.345614 0.938377 2.000000
v -0.124908 0.992168 2.000000
v 0.102244 0.994759 2.000000
v 0.324120 0.946016 2.000000
v 0.529270 0.848454 2.000000
v 0.707107 0.707107 2.000000
v 0.848454 0.529270 2.000000
v 0.946016 0.324120 2.000000
v 0.994759 0.102244 2.000000
v 0.992168 -0.124908 2.000000
v 0.938377 -0.345614 2.000000
v 0.836160 -0.548485 2.000000
vn 0.6908 -0.7231 -0.0000
vn -0.7231 0.6908 -0.0000
vn 0.8361 -0.5485 -0.0000
vn 0.9384 -0.3456 -0.0000
vn 0.9922 -0.1249 -0.0000
vn 0.9948 0.1022 -0.0000
vn 0.9460 0.3241 -0.0000
vn 0.8484 0.5293 -0.0000
vn 0.7071 0.7071 -0.0000
vn 0.5293 0.8484 -0.0000
vn 0.3241 0.9460 -0.0000
vn 0.1022 0.9948 -0.0001
vn 0.1022 0.9948 -0.0000
vn -0.1249 0.9922 -0.0000
vn -0.3456 0.9384 -0.0000
vn -0.5485 0.8361 -0.0000
vn -0.0000 -0.0000 1.0000
vn -0.0000 -0.0000 -1.0000
vt 0.000000 0.000000
vt 4.382921 0.000000
vt 0.000000 0.100000
vt 4.382921 0.100000
vt -0.100000 -0.080821
vt -0.000000 -0.080821
vt -0.100000 -0.058055
vt -0.000000 -0.058055
vt -0.100000 -0.035289
vt -0.000000 -0.035289
vt -0.100000 -0.012524
vt -0.000000 -0.012524
vt -0.100000 0.010242
vt -0.000000 0.010242
vt -0.100000 0.033008
vt -0.000000 0.033008
vt -0.100000 0.055774
vt -0.000000 0.055774
vt -0.100000 0.078540
vt -0.000000 0.078540
vt -0.100000 0.101306
vt -0.000000 0.101306
vt -0.100000 0.124071
vt -0.000000 0.124071
vt -0.100000 0.146837
vt -0.000000 0.146837
vt -0.100000 0.169603
vt -0.000000 0.169603
vt -0.100000 0.192369
vt -0.000000 0.192369
vt -0.100000 0.215135
vt -0.000000 0.215135
vt -0.100000 0.237901
vt -0.000000 0.237901
vt -1.600000 -1.600000
vt 1.569079 1.427695
vt 1.427695 1.569079
vt 1.583616 1.445151
vt 1.593838 1.465439
vt 1.599217 1.487509
vt 1.599476 1.510224
vt 1.594602 1.532412
vt 1.584845 1.552927
vt 1.570711 1.570711
vt 1.445151 1.583616
vt 1.552927 1.584845
vt 1.465439 1.593838
vt 1.532412 1.594602
vt 1.487509 1.599217
vt 1.510224 1.599476
vt -1.445151 1.583616
vt -1.570711 1.570711
vt -1.427695 1.569079
vt -1.584845 1.552927
vt -1.594602 1.532412
vt -1.552927 1.584845
vt -1.465439 1.593838
vt -1.532412 1.594602
vt -1.487509 1.599217
vt -1.510224 1.599476
vt -1.599476 1.510224
vt -1.599217 1.487509
vt -1.593838 1.465439
vt -1.583616 1.445151
vt -1.569079 1.427695
vt 1.600000 -1.600000
s 0
usemtl City_07.005
f 1/1/1 2/2/1 4/3/1
f 4/3/1 2/2/1 3/4/1
f 5/1/2 1/2/2 6/3/2
f 6/3/2 1/2/2 4/4/2
f 3/5/1 2/6/1 32/7/3
f 32/7/3 2/6/1 7/8/3
f 32/7/3 7/8/3 31/9/4
f 31/9/4 7/8/3 8/10/4
f 31/9/4 8/10/4 30/11/5
f 30/11/5 8/10/4 9/12/5
f 30/11/5 9/12/5 29/13/6
f 29/13/6 9/12/5 10/14/6
f 29/13/6 10/14/6 28/15/7
f 28/15/7 10/14/6 11/16/7
f 28/15/7 11/16/7 27/17/8
f 27/17/8 11/16/7 12/18/8
f 27/17/8 12/18/8 26/19/9
f 26/19/9 12/18/8 13/20/9
f 26/19/9 13/20/9 25/21/10
f 25/21/10 13/20/9 14/22/10
f 25/21/10 14/22/10 24/23/11
f 24/23/11 14/22/10 15/24/11
f 24/23/11 15/24/11 23/25/12
f 23/25/13 15/24/11 16/26/13
f 23/25/13 16/26/13 22/27/14
f 22/27/14 16/26/13 17/28/14
f 22/27/14 17/28/14 21/29/15
f 21/29/15 17/28/14 18/30/15
f 21/29/15 18/30/15 20/31/16
f 20/31/16 18/30/15 19/32/16
f 20/31/16 19/32/16 6/33/2
f 6/33/2 19/32/16 5/34/2
f 4/35/17 3/36/17 6/37/17
f 6/37/17 3/36/17 32/38/17
f 6/37/17 32/38/17 31/39/17
f 31/39/17 30/40/17 6/37/17
f 6/37/17 30/40/17 29/41/17
f 6/37/17 29/41/17 28/42/17
f 28/42/17 27/43/17 6/37/17
f 6/37/17 27/43/17 26/44/17
f 6/37/17 26/44/17 20/45/17
f 20/45/17 26/44/17 25/46/17
f 20/45/17 25/46/17 21/47/17
f 21/47/17 25/46/17 24/48/17
f 21/47/17 24/48/17 22/49/17
f 22/49/17 24/48/17 23/50/17
f 19/51/18 13/52/18 5/53/18
f 5/53/18 13/52/18 12/54/18
f 5/53/18 12/54/18 11/55/18
f 13/52/18 19/51/18 14/56/18
f 14/56/18 19/51/18 18/57/18
f 14/56/18 18/57/18 15/58/18
f 15/58/18 18/57/18 17/59/18
f 15/58/18 17/59/18 16/60/18
f 11/55/18 10/61/18 5/53/18
f 5/53/18 10/61/18 9/62/18
f 5/53/18 9/62/18 8/63/18
f 8/63/18 7/64/18 5/53/18
f 5/53/18 7/64/18 2/65/18
f 5/53/18 2/65/18 1/66/18
