# Blender 3.6.4
# www.blender.org
mtllib FRWheel.mtl
o FrontRightWheel
v -0.879521 0.275307 1.558854
v -0.879521 0.352988 1.571158
v -0.879521 0.205230 1.523149
v -0.879521 0.149617 1.467535
v -0.879521 0.113911 1.397459
v -0.879521 0.101608 1.319778
v -0.879521 0.113911 1.242098
v -0.879521 0.149617 1.172021
v -0.879521 0.205230 1.116408
v -0.879521 0.275307 1.080702
v -0.879521 0.352988 1.068399
v -0.879521 0.430668 1.080702
v -0.879521 0.500745 1.116408
v -0.879521 0.556358 1.172021
v -0.879521 0.592064 1.242098
v -0.879521 0.604367 1.319778
v -0.879521 0.592064 1.397459
v -0.879521 0.556358 1.467536
v -0.879521 0.500745 1.523149
v -0.879521 0.430668 1.558854
v -0.827481 0.282857 1.535620
v -0.827481 0.352988 1.546727
v -0.827481 0.219590 1.503384
v -0.827481 0.169382 1.453176
v -0.827481 0.137146 1.389909
v -0.827481 0.126038 1.319778
v -0.827481 0.137146 1.249647
v -0.827481 0.169382 1.186381
v -0.827481 0.219590 1.136172
v -0.827481 0.282857 1.103937
v -0.827481 0.352988 1.092829
v -0.827481 0.423119 1.103937
v -0.827481 0.486385 1.136172
v -0.827481 0.536594 1.186381
v -0.827481 0.568829 1.249647
v -0.827481 0.579937 1.319778
v -0.827481 0.568829 1.389910
v -0.827481 0.536593 1.453176
v -0.827481 0.486385 1.503384
v -0.827481 0.423119 1.535620
v -0.827481 0.288576 1.518016
v -0.827481 0.352988 1.528218
v -0.827481 0.230470 1.488409
v -0.827481 0.184357 1.442296
v -0.827481 0.154750 1.384189
v -0.827481 0.144548 1.319778
v -0.827481 0.154750 1.255367
v -0.827481 0.184357 1.197261
v -0.827481 0.230470 1.151147
v -0.827481 0.288576 1.121541
v -0.827481 0.352988 1.111339
v -0.827481 0.417399 1.121541
v -0.827481 0.475505 1.151147
v -0.827481 0.521619 1.197261
v -0.827481 0.551225 1.255367
v -0.827481 0.561427 1.319778
v -0.827481 0.551225 1.384190
v -0.827481 0.521619 1.442296
v -0.827481 0.475505 1.488409
v -0.827481 0.417399 1.518016
v -0.732147 0.288576 1.518016
v -0.732147 0.352988 1.528218
v -0.732147 0.230470 1.488409
v -0.732147 0.184357 1.442296
v -0.732147 0.154750 1.384189
v -0.732147 0.144548 1.319778
v -0.732147 0.154750 1.255367
v -0.732147 0.184357 1.197261
v -0.732147 0.230470 1.151147
v -0.732147 0.288576 1.121541
v -0.732147 0.352988 1.111339
v -0.732147 0.417399 1.121541
v -0.732147 0.475505 1.151147
v -0.732147 0.521619 1.197261
v -0.732147 0.551225 1.255367
v -0.732147 0.561427 1.319778
v -0.732147 0.551225 1.384190
v -0.732147 0.521619 1.442296
v -0.732147 0.475505 1.488409
v -0.732147 0.417399 1.518016
v -0.611179 0.352988 1.673866
v -0.864592 0.352988 1.673866
v -0.875148 0.352988 1.662798
v -0.611179 0.243569 1.656536
v -0.864592 0.243569 1.656536
v -0.875148 0.246989 1.646010
v -0.611179 0.144860 1.606241
v -0.864592 0.144860 1.606241
v -0.875148 0.151366 1.597287
v -0.611179 0.066525 1.527906
v -0.864592 0.066525 1.527906
v -0.875148 0.075479 1.521400
v -0.611179 0.016230 1.429197
v -0.864592 0.016230 1.429197
v -0.875148 0.026756 1.425777
v -0.611180 -0.001100 1.319778
v -0.864592 -0.001100 1.319778
v -0.875148 0.009968 1.319778
v -0.611180 0.016230 1.210359
v -0.864592 0.016230 1.210359
v -0.875148 0.026756 1.213779
v -0.611180 0.066525 1.111650
v -0.864592 0.066525 1.111651
v -0.875148 0.075479 1.118156
v -0.611180 0.144860 1.033315
v -0.864592 0.144860 1.033315
v -0.875148 0.151366 1.042269
v -0.611180 0.243569 0.983021
v -0.864592 0.243569 0.983021
v -0.875148 0.246989 0.993546
v -0.611180 0.352988 0.965690
v -0.864592 0.352988 0.965690
v -0.875148 0.352988 0.976758
v -0.611180 0.462407 0.983021
v -0.864592 0.462407 0.983021
v -0.875148 0.458987 0.993547
v -0.611180 0.561115 1.033315
v -0.864592 0.561115 1.033315
v -0.875148 0.554610 1.042269
v -0.611180 0.639451 1.111651
v -0.864592 0.639451 1.111651
v -0.875148 0.630497 1.118156
v -0.611179 0.689745 1.210359
v -0.864592 0.689745 1.210359
v -0.875148 0.679219 1.213779
v -0.611179 0.707075 1.319778
v -0.864592 0.707075 1.319778
v -0.875148 0.696008 1.319778
v -0.611179 0.689745 1.429198
v -0.864592 0.689745 1.429198
v -0.875148 0.679219 1.425778
v -0.611179 0.639451 1.527906
v -0.864592 0.639451 1.527906
v -0.875148 0.630497 1.521401
v -0.611179 0.561115 1.606241
v -0.864592 0.561115 1.606241
v -0.875148 0.554610 1.597288
v -0.611179 0.462406 1.656536
v -0.611180 0.352988 1.319778
v -0.864592 0.462406 1.656536
v -0.875148 0.458986 1.646010
v -0.815914 0.398565 1.286771
v -0.839013 0.561398 1.286771
v -0.815914 0.398516 1.352859
v -0.839013 0.561398 1.352791
v -0.841389 0.398565 1.286771
v -0.866462 0.574704 1.286771
v -0.841389 0.398516 1.352859
v -0.866462 0.574704 1.352791
v -0.822568 0.589730 1.286771
v -0.822568 0.589730 1.352791
v -0.844079 0.612544 1.352791
v -0.844079 0.612544 1.286771
v -0.815914 0.335677 1.266233
v -0.839013 0.385995 1.111370
v -0.839013 0.448785 1.131772
v -0.841389 0.335677 1.266233
v -0.866462 0.390107 1.098716
v -0.866462 0.452896 1.119117
v -0.822568 0.394750 1.084425
v -0.822568 0.457540 1.104827
v -0.844079 0.464590 1.083129
v -0.844079 0.401800 1.062727
v -0.815914 0.296712 1.319697
v -0.839013 0.164977 1.223986
v -0.839013 0.203783 1.170575
v -0.841389 0.296712 1.319697
v -0.866462 0.154213 1.216165
v -0.866462 0.193018 1.162754
v -0.822568 0.142056 1.207334
v -0.822568 0.180862 1.153922
v -0.844079 0.162405 1.140512
v -0.844079 0.123599 1.193923
v -0.815914 0.335518 1.373277
v -0.839013 0.203783 1.468987
v -0.839013 0.164977 1.415576
v -0.841389 0.335518 1.373277
v -0.866462 0.193018 1.476809
v -0.866462 0.154213 1.423397
v -0.822568 0.180862 1.485640
v -0.822568 0.142057 1.432229
v -0.844079 0.123599 1.445639
v -0.844079 0.162405 1.499050
v -0.839013 0.448785 1.507790
v -0.839013 0.385995 1.528192
v -0.866462 0.452897 1.520445
v -0.866462 0.390107 1.540846
v -0.822568 0.457540 1.534735
v -0.822568 0.394750 1.555137
v -0.844079 0.401801 1.576835
v -0.844079 0.464590 1.556433
v -0.850319 0.385405 1.296301
v -0.850319 0.385370 1.343302
v -0.850319 0.340680 1.281695
v -0.850319 0.312968 1.319717
v -0.850319 0.340566 1.357823
vn -0.0000 -1.0000 -0.0000
vn -0.0000 -0.9511 -0.3090
vn -0.4250 -0.9052 -0.0000
vn -0.4250 -0.8609 0.2797
vn -0.8607 0.1573 -0.4842
vn -0.0000 -0.0000 1.0000
vn -0.0000 -0.3090 0.9511
vn -0.0000 0.9511 0.3090
vn -0.0000 0.8090 0.5878
vn -0.0000 -0.0000 -1.0000
vn -0.0000 0.3090 -0.9511
vn -0.0000 0.5878 0.8090
vn -0.0000 0.3090 0.9511
vn -0.0000 0.9511 -0.3090
vn -0.0000 0.8090 -0.5878
vn -0.0000 -0.8090 0.5878
vn -0.0000 -0.9511 0.3090
vn -0.8607 -0.4119 0.2993
vn -0.0000 -0.5878 0.8090
vn -0.4250 0.7323 0.5321
vn -0.4250 0.5321 0.7323
vn -0.4250 -0.7323 0.5321
vn -0.4250 -0.7323 -0.5321
vn -0.4250 -0.5321 -0.7323
vn -0.4250 -0.0000 -0.9052
vn -0.4250 0.2797 -0.8609
vn -0.4250 0.7323 -0.5321
vn -0.4250 0.8609 -0.2797
vn -0.4250 0.2797 0.8609
vn -0.4250 0.9052 -0.0000
vn -0.4250 -0.8609 -0.2797
vn -0.4250 0.8609 0.2797
vn -0.4250 -0.5321 0.7323
vn -0.4250 -0.0000 0.9052
vn -0.4250 -0.2797 0.8609
vn -0.4250 -0.2797 -0.8609
vn -0.4250 0.5321 -0.7323
vn -0.8607 0.1573 0.4842
vn -1.0000 -0.0000 -0.0000
vn -0.0000 -0.8090 -0.5878
vn -0.0000 -0.5878 -0.8090
vn -0.0000 1.0000 -0.0000
vn -0.0000 0.5878 -0.8090
vn -0.9900 -0.1409 -0.0001
vn -0.7236 -0.5584 -0.4057
vn -0.7236 -0.4057 -0.5584
vn -0.7236 0.4057 -0.5584
vn -0.7236 0.5584 -0.4057
vn -0.7236 0.6902 -0.0000
vn -0.7236 0.6564 -0.2133
vn -0.7236 0.2133 0.6564
vn -0.7236 0.4057 0.5584
vn -0.7236 -0.6564 -0.2133
vn -0.7236 -0.2133 -0.6564
vn -0.7236 -0.0000 -0.6902
vn -0.7236 -0.6902 -0.0000
vn -0.7236 -0.5584 0.4057
vn -0.7236 -0.6564 0.2133
vn -0.7236 0.5584 0.4057
vn -0.7236 -0.4057 0.5584
vn -0.7236 -0.2133 0.6564
vn -0.7236 0.6564 0.2133
vn -0.7236 -0.0000 0.6902
vn -0.7236 0.2133 -0.6564
vn 1.0000 -0.0000 -0.0000
vn -0.9989 0.0280 0.0386
vn -0.9989 0.0147 0.0453
vn -0.9989 0.0386 0.0280
vn -0.9989 0.0453 0.0147
vn -0.9989 0.0477 -0.0000
vn -0.9989 -0.0000 0.0477
vn -0.9989 -0.0147 0.0453
vn -0.9989 -0.0280 0.0386
vn -0.9989 -0.0386 0.0280
vn -0.9989 -0.0453 0.0147
vn -0.9989 -0.0477 -0.0000
vn -0.9989 -0.0453 -0.0147
vn -0.9989 -0.0386 -0.0280
vn -0.9989 -0.0280 -0.0386
vn -0.9989 -0.0147 -0.0453
vn -0.9989 -0.0000 -0.0477
vn -0.9989 0.0147 -0.0453
vn -0.9989 0.0280 -0.0386
vn -0.9989 0.0386 -0.0280
vn -0.9989 0.0453 -0.0147
vn 0.0001 0.9512 -0.3086
vn -0.9900 -0.0435 -0.1340
vn -0.8274 0.5617 0.0004
vn 0.0002 -0.5885 -0.8085
vn -0.9900 -0.0436 0.1340
vn -0.0000 -0.3090 -0.9511
vn 0.0002 -0.9508 0.3098
vn -0.9900 0.1139 0.0829
vn 0.0001 0.0004 1.0000
vn 0.0002 0.9513 0.3082
vn -0.9900 0.1140 -0.0827
vn 0.0002 0.5871 -0.8095
vn -0.8272 0.1744 -0.5342
vn -0.8272 0.1732 0.5346
vn -0.8273 -0.4540 -0.3309
vn -0.8274 -0.4549 0.3295
vn -0.8607 -0.4119 -0.2993
vn -0.8607 0.5091 -0.0000
vt 0.068661 0.928869
vt 0.068661 0.964044
vt 0.033485 0.964044
vt 0.033485 0.928869
vt 0.421213 0.946259
vt 0.431670 0.946259
vt 0.431670 0.956715
vt 0.421213 0.956715
vt 0.348476 0.946198
vt 0.348412 0.946219
vt 0.348170 0.946322
vt 0.348391 0.946193
vt 0.248247 0.943299
vt 0.248247 0.946430
vt 0.245117 0.946430
vt 0.245117 0.943299
vt 0.350013 0.945928
vt 0.349994 0.945844
vt 0.350087 0.945599
vt 0.350024 0.945860
vt 0.349943 0.945389
vt 0.350087 0.945598
vt 0.349918 0.945401
vt 0.349875 0.945355
vt 0.348505 0.946116
vt 0.348443 0.946179
vt 0.327425 0.927959
vt 0.325473 0.926007
vt 0.454199 0.945368
vt 0.454130 0.945402
vt 0.454798 0.944563
vt 0.454906 0.944526
vt 0.327425 0.926007
vt 0.325473 0.927959
vt 0.039542 0.950396
vt 0.050606 0.950396
vt 0.326104 0.983364
vt 0.033485 0.962285
vt 0.072881 0.971407
vt 0.076677 0.966675
vt 0.073225 0.971407
vt 0.076779 0.966675
vt 0.349181 0.944523
vt 0.349876 0.945265
vt 0.349138 0.944358
vt 0.455757 0.945389
vt 0.455688 0.945355
vt 0.454995 0.944523
vt 0.455101 0.944561
vt 0.349343 0.945670
vt 0.348480 0.946194
vt 0.349352 0.945725
vt 0.349860 0.945355
vt 0.349966 0.945458
vt 0.348339 0.946246
vt 0.348984 0.944563
vt 0.349093 0.944526
vt 0.349607 0.947105
vt 0.349936 0.945971
vt 0.349582 0.946957
vt 0.348316 0.945402
vt 0.348170 0.945613
vt 0.348292 0.945472
vt 0.348400 0.945368
vt 0.348385 0.945368
vt 0.348384 0.945276
vt 0.348354 0.945363
vt 0.348342 0.945414
vt 0.350010 0.945933
vt 0.349628 0.946889
vt 0.349685 0.946889
vt 0.454290 0.946198
vt 0.454205 0.946193
vt 0.455157 0.945670
vt 0.455363 0.945614
vt 0.349054 0.944563
vt 0.350556 0.944650
vt 0.350581 0.944738
vt 0.350588 0.944646
vt 0.350587 0.944594
vt 0.349906 0.945351
vt 0.349288 0.944561
vt 0.349219 0.944561
vt 0.456370 0.944650
vt 0.456429 0.944599
vt 0.455997 0.945580
vt 0.455901 0.945644
vt 0.349137 0.944358
vt 0.148986 0.944745
vt 0.149263 0.943894
vt 0.148538 0.943368
vt 0.148091 0.944745
vt 0.350615 0.944599
vt 0.350703 0.944358
vt 0.350620 0.944525
vt 0.350543 0.944654
vt 0.349549 0.945614
vt 0.349402 0.945614
vt 0.455808 0.945844
vt 0.455827 0.945928
vt 0.455420 0.947105
vt 0.455441 0.946889
vt 0.350088 0.945644
vt 0.350088 0.945818
vt 0.349989 0.945897
vt 0.350038 0.945783
vt 0.350183 0.945580
vt 0.147815 0.943894
vt 0.350116 0.945598
s 1
usemtl Material
f 97/1/1 100/2/2 99/3/2 96/4/1
f 16/5/3 15/6/4 35/7/4 36/8/3
f 159/9/5 162/10/5 163/11/5 158/12/5
f 51/13/6 71/14/6 72/15/7 52/16/7
f 130/1/8 133/2/9 132/3/9 129/4/8
f 42/13/10 62/14/10 61/15/11 41/16/11
f 49/13/12 69/14/12 70/15/13 50/16/13
f 50/13/13 70/14/13 71/15/6 51/16/6
f 45/16/14 44/13/15 64/14/15 65/15/14
f 91/1/16 94/2/17 93/3/17 90/4/16
f 54/13/16 74/14/16 75/15/17 55/16/17
f 48/13/9 68/14/9 69/15/12 49/16/12
f 121/1/15 124/2/14 123/3/14 120/4/15
f 178/17/18 179/18/18 182/19/18 183/20/18
f 53/13/19 73/14/19 74/15/16 54/16/16
f 8/6/20 28/7/20 29/8/21 9/5/21
f 15/5/4 14/6/22 34/7/22 35/8/4
f 18/6/23 38/7/23 39/8/24 19/5/24
f 2/6/25 22/7/25 21/8/26 1/5/26
f 4/6/27 24/7/27 25/8/28 5/5/28
f 9/6/21 29/7/21 30/8/29 10/5/29
f 5/6/28 25/7/28 26/8/30 6/5/30
f 17/6/31 37/7/31 38/8/23 18/5/23
f 6/6/30 26/7/30 27/8/32 7/5/32
f 13/6/33 33/7/33 34/8/22 14/5/22
f 7/6/32 27/7/32 28/8/20 8/5/20
f 11/6/34 31/7/34 32/8/35 12/5/35
f 2/5/25 20/6/36 40/7/36 22/8/25
f 16/6/3 36/7/3 37/8/31 17/5/31
f 13/5/33 12/6/35 32/7/35 33/8/33
f 10/6/29 30/7/29 31/8/34 11/5/34
f 20/5/36 19/6/24 39/7/24 40/8/36
f 1/6/26 21/7/26 23/8/37 3/5/37
f 187/21/38 190/22/38 191/23/38 186/24/38
f 159/9/8 156/25/8 161/26/8 162/10/8
f 56/27/39 37/28/39 35/28/39
f 58/13/40 78/14/40 79/15/41 59/16/41
f 47/13/8 67/14/8 68/15/9 48/16/9
f 88/1/19 91/2/16 90/3/16 87/4/19
f 136/1/12 140/2/13 138/3/13 135/4/12
f 103/1/40 106/2/41 105/3/41 102/4/40
f 112/1/10 115/2/11 114/3/11 111/4/10
f 124/1/14 127/2/42 126/3/42 123/4/14
f 43/13/43 63/14/43 64/15/15 44/16/15
f 82/1/6 85/2/7 84/3/7 81/4/6
f 118/1/43 121/2/15 120/3/15 117/4/43
f 115/1/11 118/2/43 117/3/43 114/4/11
f 149/29/44 147/30/44 146/31/44 148/32/44
f 103/1/45 104/2/45 107/3/46 106/4/46
f 118/1/47 119/2/47 122/3/48 121/4/48
f 127/4/49 124/1/50 125/2/50 128/3/49
f 140/4/51 136/1/52 137/2/52 141/3/51
f 100/1/53 101/2/53 104/3/45 103/4/45
f 109/1/54 110/2/54 113/3/55 112/4/55
f 100/4/53 97/1/56 98/2/56 101/3/53
f 91/1/57 92/2/57 95/3/58 94/4/58
f 46/27/39 47/27/39 27/28/39 26/33/39
f 133/1/59 134/2/59 137/3/52 136/4/52
f 88/4/60 85/1/61 86/2/61 89/3/60
f 130/1/62 131/2/62 134/3/59 133/4/59
f 130/4/62 127/1/49 128/2/49 131/3/62
f 85/4/61 82/1/63 83/2/63 86/3/61
f 94/1/58 95/2/58 98/3/56 97/4/56
f 88/1/60 89/2/60 92/3/57 91/4/57
f 115/4/64 112/1/55 113/2/55 116/3/64
f 106/1/46 107/2/46 110/3/54 109/4/54
f 82/4/63 140/1/51 141/2/51 83/3/63
f 115/1/64 116/2/64 119/3/47 118/4/47
f 29/28/39 28/28/39 27/28/39
f 25/33/39 45/27/39 46/34/39 26/28/39
f 31/28/39 30/28/39 29/28/39
f 33/28/39 32/28/39 31/28/39
f 35/28/39 34/28/39 33/28/39
f 37/28/39 36/28/39 35/28/39
f 39/28/39 38/28/39 37/28/39
f 22/28/39 40/28/39 39/28/39
f 23/28/39 21/28/39 22/28/39
f 25/28/39 24/28/39 23/28/39
f 44/27/39 45/34/39 25/28/39
f 44/27/39 25/28/39 23/28/39
f 27/28/39 47/27/39 48/27/39
f 29/28/39 27/28/39 48/27/39
f 43/27/39 44/27/39 23/28/39
f 41/27/39 43/27/39 23/28/39
f 29/28/39 48/27/39 49/27/39
f 29/28/39 49/27/39 50/27/39
f 41/27/39 23/28/39 22/28/39
f 42/27/39 41/27/39 22/28/39
f 31/28/39 29/28/39 50/27/39
f 31/28/39 50/27/39 51/27/39
f 60/27/39 42/27/39 22/28/39
f 60/27/39 22/28/39 39/28/39
f 31/28/39 51/27/39 52/27/39
f 33/28/39 31/28/39 52/27/39
f 59/27/39 60/27/39 39/28/39
f 58/27/39 59/27/39 39/28/39
f 33/28/39 52/27/39 53/27/39
f 33/28/39 53/27/39 54/27/39
f 58/27/39 39/28/39 37/28/39
f 57/27/39 58/27/39 37/28/39
f 35/28/39 33/28/39 54/27/39
f 35/28/39 54/27/39 55/27/39
f 56/27/39 57/27/39 37/28/39
f 35/28/39 55/27/39 56/27/39
f 63/35/39 61/36/39 62/35/39
f 62/35/39 80/35/39 79/35/39
f 79/35/39 78/35/39 77/35/39
f 77/35/39 76/35/39 75/35/39
f 75/35/39 74/35/39 73/35/39
f 73/37/39 72/37/39 71/37/39
f 71/35/39 70/35/39 69/35/39
f 69/35/39 68/35/39 67/35/39
f 67/35/39 66/35/39 65/35/39
f 65/35/39 64/35/39 63/35/39
f 63/35/39 62/35/39 79/35/39
f 79/35/39 77/35/39 75/35/39
f 75/35/39 73/35/39 71/35/39
f 71/35/39 69/35/39 67/35/39
f 67/35/39 65/35/39 63/35/39
f 63/35/39 79/35/39 75/35/39
f 138/3/65 81/4/65 139/38/65
f 135/3/65 138/3/65 139/38/65
f 132/3/65 135/3/65 139/38/65
f 129/3/65 132/3/65 139/38/65
f 126/3/65 129/3/65 139/38/65
f 123/3/65 126/3/65 139/38/65
f 120/3/65 123/3/65 139/38/65
f 117/3/65 120/3/65 139/38/65
f 114/3/65 117/3/65 139/38/65
f 111/3/65 114/3/65 139/38/65
f 108/3/65 111/3/65 139/38/65
f 105/3/65 108/3/65 139/38/65
f 102/3/65 105/3/65 139/38/65
f 99/3/65 102/3/65 139/38/65
f 96/3/65 99/3/65 139/38/65
f 93/3/65 96/3/65 139/38/65
f 90/3/65 93/3/65 139/38/65
f 87/3/65 90/3/65 139/38/65
f 84/3/65 87/3/65 139/38/65
f 81/4/65 84/3/65 139/38/65
f 137/39/66 19/40/66 20/40/67 141/39/67
f 19/40/66 137/39/66 134/41/68 18/40/68
f 17/40/69 18/40/68 134/39/68 131/39/69
f 17/40/69 131/39/69 128/41/70 16/42/70
f 141/39/67 20/40/67 2/40/71 83/39/71
f 1/40/72 86/39/72 83/41/71 2/40/71
f 3/40/73 89/39/73 86/41/72 1/40/72
f 3/40/73 4/40/74 92/39/74 89/39/73
f 5/40/75 95/39/75 92/41/74 4/40/74
f 5/40/75 6/40/76 98/39/76 95/39/75
f 7/40/77 101/39/77 98/41/76 6/40/76
f 7/40/77 8/40/78 104/39/78 101/39/77
f 8/40/78 9/40/79 107/39/79 104/39/78
f 9/40/79 10/40/80 110/39/80 107/39/79
f 11/40/81 113/39/81 110/41/80 10/40/80
f 12/40/82 116/39/82 113/41/81 11/40/81
f 13/40/83 119/39/83 116/41/82 12/40/82
f 14/40/84 122/39/84 119/41/83 13/40/83
f 15/40/85 125/39/85 122/41/84 14/40/84
f 125/39/85 15/40/85 16/40/70 128/41/70
f 3/6/37 23/7/37 24/8/27 4/5/27
f 148/43/86 186/24/86 184/44/86 144/45/86
f 187/46/87 186/47/87 148/48/87 177/49/87
f 157/50/2 158/12/2 155/51/2 154/52/2
f 56/13/1 76/14/1 77/15/2 57/16/2
f 187/21/17 185/53/17 189/54/17 190/22/17
f 158/12/2 163/11/2 160/55/2 155/51/2
f 146/56/88 192/56/88 193/57/88 148/57/88
f 121/1/48 122/2/48 125/3/50 124/4/50
f 177/58/12 178/17/12 175/59/12 174/60/12
f 147/61/10 153/62/10 150/63/10 143/64/10
f 149/65/6 145/66/6 151/67/6 152/68/6
f 176/69/89 179/18/89 167/70/89 164/71/89
f 159/72/90 158/73/90 157/74/90 146/75/90
f 146/56/10 147/61/10 143/64/10 142/76/10
f 60/13/91 80/14/91 62/15/10 42/16/10
f 169/77/43 166/78/43 171/79/43 172/80/43
f 186/24/14 191/23/14 188/81/14 184/44/14
f 185/53/92 187/21/92 177/82/92 174/83/92
f 169/84/93 168/85/93 167/86/93 157/87/93
f 145/66/94 149/65/94 148/57/94 144/88/94
f 46/13/42 66/14/42 67/15/8 47/16/8
f 195/89/39 196/90/39 193/91/39 194/92/39
f 168/93/19 173/94/19 170/95/19 165/96/19
f 156/25/95 159/9/95 146/97/95 142/98/95
f 179/99/96 178/100/96 177/101/96 167/102/96
f 166/78/97 169/77/97 157/103/97 154/104/97
f 59/13/41 79/14/41 80/15/91 60/16/91
f 178/17/12 183/20/12 180/105/12 175/59/12
f 179/18/41 176/69/41 181/106/41 182/19/41
f 146/97/98 157/50/98 194/50/98 192/97/98
f 148/43/99 193/43/99 196/82/99 177/82/99
f 157/103/100 167/107/100 195/107/100 194/103/100
f 167/70/101 177/58/101 196/58/101 195/70/101
f 75/35/39 71/35/39 67/35/39 63/35/39
f 192/108/39 194/92/39 193/91/39
f 167/107/19 168/93/19 165/96/19 164/109/19
f 41/13/11 61/14/11 63/15/43 43/16/43
f 55/13/17 75/14/17 76/15/1 56/16/1
f 85/1/7 88/2/19 87/3/19 84/4/7
f 133/1/9 136/2/12 135/3/12 132/4/9
f 52/13/7 72/14/7 73/15/19 53/16/19
f 94/1/17 97/2/1 96/3/1 93/4/17
f 45/13/14 65/14/14 66/15/42 46/16/42
f 106/1/41 109/2/91 108/3/91 105/4/41
f 169/77/102 172/80/102 173/94/102 168/93/102
f 127/1/42 130/2/8 129/3/8 126/4/42
f 109/1/91 112/2/10 111/3/10 108/4/91
f 140/1/13 82/2/6 81/3/6 138/4/13
f 58/16/40 57/13/2 77/14/2 78/15/40
f 100/1/2 103/2/40 102/3/40 99/4/2
f 149/65/103 152/68/103 153/62/103 147/61/103
